<svg xmlns="http://www.w3.org/2000/svg" xmlns:xlink="http://www.w3.org/1999/xlink" viewBox="0 0 617.45 593.92"><defs><style>.cls-1{fill:#221f1f;}.cls-2{fill:#19537a;}.cls-3{fill:url(#linear-gradient);}.cls-4{fill:url(#linear-gradient-2);}.cls-5{fill:url(#linear-gradient-3);}.cls-6{fill:url(#linear-gradient-4);}.cls-7{fill:url(#linear-gradient-5);}.cls-8{fill:none;stroke:#221f1f;stroke-miterlimit:10;}.cls-9{fill:url(#radial-gradient);}.cls-10{fill:url(#radial-gradient-2);}.cls-11{fill:url(#radial-gradient-3);}.cls-12{fill:url(#radial-gradient-4);}.cls-13{fill:url(#radial-gradient-5);}.cls-14{fill:url(#linear-gradient-6);}.cls-15{fill:#5499d3;}.cls-16{fill:#3587c8;}.cls-17{fill:#60b6e6;}.cls-18{fill:#fff;}</style><linearGradient id="linear-gradient" x1="491.94" y1="223.85" x2="549.28" y2="223.85" gradientUnits="userSpaceOnUse"><stop offset="0" stop-color="#24fff4"/><stop offset="0.28" stop-color="#50fff4"/><stop offset="0.6" stop-color="#7cfff4"/><stop offset="0.85" stop-color="#98fff4"/><stop offset="1" stop-color="#a2fff4"/></linearGradient><linearGradient id="linear-gradient-2" x1="335.52" y1="232.24" x2="548.28" y2="232.24" xlink:href="#linear-gradient"/><linearGradient id="linear-gradient-3" x1="524.17" y1="184.97" x2="524.39" y2="184.97" xlink:href="#linear-gradient"/><linearGradient id="linear-gradient-4" x1="334" y1="232.42" x2="524.35" y2="232.42" xlink:href="#linear-gradient"/><linearGradient id="linear-gradient-5" x1="491.83" y1="258.41" x2="492.06" y2="258.41" xlink:href="#linear-gradient"/><radialGradient id="radial-gradient" cx="741.39" cy="648.19" r="0.54" gradientUnits="userSpaceOnUse"><stop offset="0" stop-color="#60b6e6"/><stop offset="0.48" stop-color="#62bdea"/><stop offset="1" stop-color="#66caf3"/></radialGradient><radialGradient id="radial-gradient-2" cx="481.97" cy="487.33" r="280.34" xlink:href="#radial-gradient"/><radialGradient id="radial-gradient-3" cx="470.59" cy="487.12" r="273.77" xlink:href="#radial-gradient"/><radialGradient id="radial-gradient-4" cx="628.52" cy="642.63" r="0.19" xlink:href="#radial-gradient"/><radialGradient id="radial-gradient-5" cx="684.91" cy="636.98" r="40.82" xlink:href="#radial-gradient"/><linearGradient id="linear-gradient-6" x1="296.36" y1="394.5" x2="711.4" y2="679.59" gradientUnits="userSpaceOnUse"><stop offset="0" stop-color="#65c9f2"/><stop offset="0" stop-color="#65c9f2"/><stop offset="0.14" stop-color="#4ea5cd"/><stop offset="0.28" stop-color="#3b87af"/><stop offset="0.43" stop-color="#2c7098"/><stop offset="0.6" stop-color="#216087"/><stop offset="0.77" stop-color="#1b567d"/><stop offset="1" stop-color="#19537a"/></linearGradient></defs><g id="Layer_1" data-name="Layer 1"><path class="cls-1" d="M526,261.81a184.12,184.12,0,0,0-22.66-.07l-.06-1a181.46,181.46,0,0,1,22.74.07Z" transform="translate(-199.32 -171.42)"/><path class="cls-1" d="M514.05,662.86c-104.88,0-190.2-90.27-190.2-201.23a210.78,210.78,0,0,1,23-96l.11-.17-.06.08,0,0,.1.1.81.25-.07.12h0l-.06.14a209.68,209.68,0,0,0-22.87,95.5c0,110.41,84.87,200.23,189.2,200.23a179.22,179.22,0,0,0,53-8l.65-.19.27,1-.64.18A180.35,180.35,0,0,1,514.05,662.86Z" transform="translate(-199.32 -171.42)"/><polygon class="cls-1" points="439.05 464.42 439.05 463.96 438.65 463.6 439.05 463.42 439.05 463.92 439.39 464.27 439.05 463.96 439.05 464.42"/><circle class="cls-2" cx="509.96" cy="219.22" r="59.93"/><path class="cls-3" d="M524.35,184.82c16.37,6.09,24.93,25.46,24.93,41.47,0,23.59-11.71,36.58-33,36.58-6.48,0-18.65-1.33-24.35-4.22H492l.06-.5.23-.44c5.27,2.71,17.33,4.15,24,4.15,20.63,0,32-12.63,32-35.58,0-15.68-8.36-34.65-24.33-40.55l-.17-.1.35-.39,0-.12.22-.28Z" transform="translate(-199.32 -171.42)"/><path class="cls-4" d="M524,185.74c16,5.9,24.33,24.87,24.33,40.55,0,23-11.36,35.58-32,35.58-6.67,0-18.73-1.44-24-4.15l-.23.44.06-.5c-47-5.8-88.76,30.22-93.31,34.29l-63.29-82c65.42-34,112.86-38.91,141.17-37,31,2,46.49,12.37,47.09,12.77Z" transform="translate(-199.32 -171.42)"/><path class="cls-5" d="M524.39,184.85l-.22.28.12-.33.06,0Z" transform="translate(-199.32 -171.42)"/><path class="cls-6" d="M524.35,184.82l-.06,0-.12.33-.39.51c-.6-.4-16.09-10.72-47.09-12.77-28.31-1.88-75.75,3-141.17,37l63.29,82c4.55-4.07,46.35-40.09,93.31-34.29l-.06.5-.23.44.11,0c-49-6-92.43,34-92.86,34.4l-.4.37L334,209.56l.53-.27C460.33,143.7,521.33,182.78,524.35,184.82Z" transform="translate(-199.32 -171.42)"/><path class="cls-7" d="M492.06,258.16l-.06.5h-.06l-.11,0Z" transform="translate(-199.32 -171.42)"/><path class="cls-8" d="M398.74,292.68" transform="translate(-199.32 -171.42)"/><path class="cls-1" d="M567.36,654.83l-.28-1c7.24-2.07,177.58-50.6,197.36-39.14l-.51.86C744.52,604.35,569.13,654.32,567.36,654.83Z" transform="translate(-199.32 -171.42)"/><path class="cls-1" d="M347.74,366.09l-.9-.43c.27-.55,27-55.71,51.6-73.38l.59.81C374.58,310.61,348,365.54,347.74,366.09Z" transform="translate(-199.32 -171.42)"/><path class="cls-9" d="M741.92,648.08l-.75.66-.3-.32.63-.79Z" transform="translate(-199.32 -171.42)"/><path class="cls-10" d="M288.21,676.46a303.51,303.51,0,0,1,46.27-467.15l.56.84A302.13,302.13,0,0,0,200.32,461.87c0,166.78,135.69,302.47,302.48,302.47,93.18,0,181.17-43.58,238.07-115.92l.3.32.75-.66-.42-.45a300.83,300.83,0,0,0,22.26-32.73l.86.5A303.27,303.27,0,0,1,502.8,765.34,301.53,301.53,0,0,1,288.21,676.46Z" transform="translate(-199.32 -171.42)"/><path class="cls-11" d="M358.14,244.42c-66.43,42.61-81.95,140.5-81.95,218.76,0,61.4,9.3,101.31,53.17,144.73s107.6,74,169.64,74a233,233,0,0,0,127.56-37.75l2-1.32c2.2-.27,29.59-3.66,56.89-14.06,26.38-10,52.36,16.39,55.4,19.62C684,720.76,596,764.34,502.8,764.34c-166.79,0-302.48-135.69-302.48-302.47A302.13,302.13,0,0,1,335,210.15l.48-.25,24.59,33Z" transform="translate(-199.32 -171.42)"/><path class="cls-12" d="M628.58,642.86h-.14l-.05-.48.27.41Z" transform="translate(-199.32 -171.42)"/><path class="cls-13" d="M628.33,641.88c.28,0,28.58-3.27,56.78-14,26.67-10.17,52.78,16,56.39,19.76l-.63.79c-3-3.23-29-29.67-55.4-19.62-27.3,10.4-54.69,13.79-56.89,14.06l.08-.06-.27-.41Z" transform="translate(-199.32 -171.42)"/><path class="cls-14" d="M769.2,619l-28,29.77s-27.1-33.09-55.7-19.94-57,14.07-57,14.07-90.51,61.27-188.06,31.71-138.7-101.14-138.7-101.14-51.53-74.9-29.7-182.81S346.84,249,346.84,249l11.64-8.28,40,51.52S335,369.38,331.33,420.6c-1.53,21.44-27.86,58.62,41.6,167l25.81,19.15s20.68,24.51,61.27,37.54S533.54,658,533.54,658l51.86-9.29S785,581.71,769.2,619Z" transform="translate(-199.32 -171.42)"/></g><g id="Layer_3" data-name="Layer 3"><path class="cls-2" d="M404.1,587.57l-31.17,8.84S365,367.74,421.71,384.6s127.57,72.76,127.57,72.76L441.63,433.62s-24.11-10-12.44,10.72,24.69,6.23,24.69,6.23l7,19.81L562.65,570,545,581.45l-84.25-85.79S484,618.32,482,625.54,457.71,613,457.71,613s-27.57-59.87-32.17-82.09Z" transform="translate(-199.32 -171.42)"/><circle class="cls-2" cx="231.93" cy="183.44" r="23.12"/><circle class="cls-15" cx="368.69" cy="354.01" r="11.27"/><circle class="cls-15" cx="415.29" cy="314.26" r="9.62"/><circle class="cls-15" cx="570.78" cy="360.35" r="7.27"/><circle class="cls-15" cx="607.71" cy="370.09" r="9.74"/><path class="cls-15" d="M526,613" transform="translate(-199.32 -171.42)"/><path class="cls-2" d="M540.44,640.43s35.23,1.5,48.25-6.53,77.42-28.53,85-29.47c14.63-1.83,38.3-6.9,52.09-4.6s61.29,4.06,61.29,4.06-45.18-41.29-106.48-36.23C680.61,567.66,610.14,572.26,540.44,640.43Z" transform="translate(-199.32 -171.42)"/><path class="cls-16" d="M540.44,639.15s83-74.65,154.21-71.92c0,0-74.32-32.76-168.65,44.47l2,3.46a53.43,53.43,0,0,0,12.49,23.93Z" transform="translate(-199.32 -171.42)"/><path class="cls-17" d="M526,611.7s86.78-75.62,168.65-44.47c0,0,41.55,1.15,60.86,16,0,0-17.8-24.66-80.09-34.19,0,0-42.39-8.51-112.77,20.94C562.65,570,527.39,591.32,526,611.7Z" transform="translate(-199.32 -171.42)"/><path class="cls-18" d="M372.93,596.41l31.17-8.84s2,23-27.58,25.41c0,0-18.72,5.49-25.53,4.81,0,0-4.09,14-9.87,12.93l-4.77.06v-9.93s5.11-9.76,5.11-17Z" transform="translate(-199.32 -171.42)"/></g></svg>